<?xml version="1.0" encoding="utf-8"?>
<!-- Generator: Adobe Illustrator 24.0.1, SVG Export Plug-In . SVG Version: 6.00 Build 0)  -->
<svg version="1.1" id="Calque_1" xmlns="http://www.w3.org/2000/svg" xmlns:xlink="http://www.w3.org/1999/xlink" x="0px" y="0px"
	 viewBox="0 0 460.9 135.9" style="enable-background:new 0 0 460.9 135.9;" xml:space="preserve">
<style type="text/css">
	.st0{display:none;}
	.st1{fill:#CE0033;}
	.st2{font-family:'NunitoSans-Bold';}
	.st3{font-size:46px;}
</style>
<g id="Calque_1_1_">
	<title>SIMPLON_CO_LOGOTYPE_MARQUE_PROPRIETAIRE_ROUGE_NOIR_RVB</title>
	<path class="st0" d="M200.2,152.2c-1.3-1.2-3.3-1.2-4.6,0c-0.6,0.5-0.9,1.3-0.9,2.1s0.3,1.5,0.9,2.1c1.3,1.2,3.3,1.2,4.6,0
		c0.6-0.5,0.9-1.3,0.9-2.1C201.2,153.5,200.8,152.8,200.2,152.2z"/>
	<path d="M27.7,42.7C22,41,16.9,37.9,12.6,33.8C8.9,30.2,6.8,25.2,6.9,20c0-5.2,2.1-10.3,5.9-13.9c3.9-4,9.2-6.1,14.7-6
		c5.6-0.1,11,2.1,14.9,6.2c2.4,2.5,4.1,5.6,5,8.9L37.6,19c-1.2-3.3-2.3-5.4-3.3-6.4c-3.4-3.8-9.1-4.1-12.9-0.7
		c-0.2,0.2-0.4,0.4-0.6,0.6c-2,2-3,4.7-3,7.5c-0.1,2.8,1,5.6,3,7.6c2.6,2.3,5.5,4.2,8.6,5.6c6.6,2,12.6,5.6,17.5,10.5
		C57.5,53.8,57.8,70.5,47.7,81c-0.2,0.2-0.4,0.4-0.7,0.7c-5.1,5.3-12.2,8.2-19.6,8c-7.4,0.1-14.6-2.9-19.7-8.2
		C3.5,77,0.7,71.3,0,65.2l10.6-3.8c0.7,6.4,2.5,11,5.4,13.9c3,3.1,7.2,4.9,11.5,4.9c4.4,0,8.7-1.8,11.8-5c3.3-3.3,5.1-7.8,5-12.4
		c0.1-4.6-1.7-9.1-4.9-12.3C36,47.1,32.1,44.5,27.7,42.7z"/>
	<path d="M76.3,1.2v87.5h-11V1.2H76.3z"/>
	<path d="M169.3,1.2v87.5h-11V17.6l-28.8,37.8l-28.8-37.8v71.1h-11V1.2h11.7L129.6,38l28-36.8L169.3,1.2z"/>
	<path d="M246.6,88.7V1.2h11v77.9H289v9.5L246.6,88.7L246.6,88.7z"/>
	<path class="st1" d="M365.6,13.2c8.6,8.2,13.4,19.7,13.2,31.5c0.2,11.9-4.6,23.4-13.2,31.6c-17.9,17.6-46.6,17.6-64.5,0
		c-8.6-8.3-13.4-19.7-13.2-31.6c-0.1-11.9,4.7-23.3,13.2-31.5C319-4.4,347.8-4.4,365.6,13.2z M333.3,9.6
		c-9.1-0.1-17.9,3.6-24.2,10.2c-6.7,6.6-10.4,15.6-10.2,25c-0.2,9.4,3.5,18.4,10.2,25c13,13.4,34.5,13.6,47.8,0.6
		c0.2-0.2,0.4-0.4,0.6-0.6c6.7-6.6,10.4-15.6,10.2-25c0.2-9.4-3.5-18.4-10.2-25C351.3,13.3,342.5,9.5,333.3,9.6z"/>
	<path d="M400.1,1.2l49.8,69.9V1.2h11v87.5h-12.1l-48.6-68.1v68.1h-11V1.2H400.1z"/>
	<path class="st1" d="M339.4,27.4H326v13.3h13.4V27.4z M339.4,51.2H326v13.4h13.4V51.2z"/>
	<path d="M228,10.7c-5.3-5.3-12.2-8.7-19.6-9.5h-26v87.5h11V64.4H205c8.6,0.2,17-3.2,23-9.4c6-5.8,9.4-13.9,9.3-22.3
		C237.3,24.4,234,16.5,228,10.7z M219.8,48c-3.8,3.9-9.1,6.1-14.6,6.1h-11.9V11.5h11.9c5.5,0,10.8,2.2,14.6,6.1
		c4.1,3.9,6.4,9.4,6.2,15.2C226.2,38.5,223.9,44,219.8,48z"/>
</g>
<g id="Calque_2_1_">
	<text transform="matrix(1 0 0 1 166.0097 132.3717)" class="st1 st2 st3">MAROC</text>
</g>
</svg>
